<svg xmlns="http://www.w3.org/2000/svg" xmlns:xlink="http://www.w3.org/1999/xlink"><defs><clipPath id="a"><path d="M5 0h434.969a5 5 0 015 5v629a5 5 0 01-5 5H5a5 5 0 01-5-5V5a5 5 0 015-5z"/></clipPath><clipPath id="a"><path d="M5 0h258.937a5 5 0 015 5v399a5 5 0 01-5 5H5a5 5 0 01-5-5V5a5 5 0 015-5z"/></clipPath></defs><symbol id="amazon" viewBox="0 0 448 512"><path d="M257.2 162.7c-48.7 1.8-169.5 15.5-169.5 117.5 0 109.5 138.3 114 183.5 43.2 6.5 10.2 35.4 37.5 45.3 46.8l56.8-56S341 288.9 341 261.4V114.3C341 89 316.5 32 228.7 32 140.7 32 94 87 94 136.3l73.5 6.8c16.3-49.5 54.2-49.5 54.2-49.5 40.7-.1 35.5 29.8 35.5 69.1zm0 86.8c0 80-84.2 68-84.2 17.2 0-47.2 50.5-56.7 84.2-57.8v40.6zm136 163.5c-7.7 10-70 67-174.5 67S34.2 408.5 9.7 379c-6.8-7.7 1-11.3 5.5-8.3C88.5 415.2 203 488.5 387.7 401c7.5-3.7 13.3 2 5.5 12zm39.8 2.2c-6.5 15.8-16 26.8-21.2 31-5.5 4.5-9.5 2.7-6.5-3.8s19.3-46.5 12.7-55c-6.5-8.3-37-4.3-48-3.2-10.8 1-13 2-14-.3-2.3-5.7 21.7-15.5 37.5-17.5 15.7-1.8 41-.8 46 5.7 3.7 5.1 0 27.1-6.5 43.1z"/></symbol><symbol id="apple-pay" viewBox="0 0 640 512"><path d="M116.9 158.5c-7.5 8.9-19.5 15.9-31.5 14.9-1.5-12 4.4-24.8 11.3-32.6 7.5-9.1 20.6-15.6 31.3-16.1 1.2 12.4-3.7 24.7-11.1 33.8m10.9 17.2c-17.4-1-32.3 9.9-40.5 9.9-8.4 0-21-9.4-34.8-9.1-17.9.3-34.5 10.4-43.6 26.5-18.8 32.3-4.9 80 13.3 106.3 8.9 13 19.5 27.3 33.5 26.8 13.3-.5 18.5-8.6 34.5-8.6 16.1 0 20.8 8.6 34.8 8.4 14.5-.3 23.6-13 32.5-26 10.1-14.8 14.3-29.1 14.5-29.9-.3-.3-28-10.9-28.3-42.9-.3-26.8 21.9-39.5 22.9-40.3-12.5-18.6-32-20.6-38.8-21.1m100.4-36.2v194.9h30.3v-66.6h41.9c38.3 0 65.1-26.3 65.1-64.3s-26.4-64-64.1-64h-73.2zm30.3 25.5h34.9c26.3 0 41.3 14 41.3 38.6s-15 38.8-41.4 38.8h-34.8V165zm162.2 170.9c19 0 36.6-9.6 44.6-24.9h.6v23.4h28v-97c0-28.1-22.5-46.3-57.1-46.3-32.1 0-55.9 18.4-56.8 43.6h27.3c2.3-12 13.4-19.9 28.6-19.9 18.5 0 28.9 8.6 28.9 24.5v10.8l-37.8 2.3c-35.1 2.1-54.1 16.5-54.1 41.5.1 25.2 19.7 42 47.8 42zm8.2-23.1c-16.1 0-26.4-7.8-26.4-19.6 0-12.3 9.9-19.4 28.8-20.5l33.6-2.1v11c0 18.2-15.5 31.2-36 31.2zm102.5 74.6c29.5 0 43.4-11.3 55.5-45.4L640 193h-30.8l-35.6 115.1h-.6L537.4 193h-31.6L557 334.9l-2.8 8.6c-4.6 14.6-12.1 20.3-25.5 20.3-2.4 0-7-.3-8.9-.5v23.4c1.8.4 9.3.7 11.6.7z"/></symbol><symbol id="book"><path fill="#44444f" d="M5 0h434.969a5 5 0 015 5v629a5 5 0 01-5 5H5a5 5 0 01-5-5V5a5 5 0 015-5z"/><g clip-path="url(#a)"><path fill="#65e496" d="M376.051 536.046l165.419-165.39c12.008-12.007 31.478-12.007 43.486 0 12.008 12.005 12.008 31.472 0 43.478L419.537 579.526c-12.008 12.005-31.478 12.005-43.486 0-12.008-12.007-12.008-31.473 0-43.48z"/></g><g clip-path="url(#a)"><path fill="#65e496" d="M295.258 490.23l165.419-165.39c12.008-12.006 31.478-12.006 43.486 0 12.009 12.007 12.009 31.473 0 43.48L338.745 533.71c-12.009 12.007-31.478 12.007-43.487 0-12.008-12.006-12.008-31.473 0-43.48z"/></g><g clip-path="url(#a)"><path fill="#3d3d47" d="M0 0h62.719v639H0z"/></g></symbol><symbol id="book_sm"><path fill="#44444f" d="M5 0h258.937a5 5 0 015 5v399a5 5 0 01-5 5H5a5 5 0 01-5-5V5a5 5 0 015-5z"/><g clip-path="url(#a)"><path fill="#65e496" d="M250.672 294.17l105.655-61a5 5 0 115 8.66l-105.655 61a5 5 0 11-5-8.66z"/></g><g clip-path="url(#a)"><path fill="#65e496" d="M250.672 267.17l105.655-61a5 5 0 115 8.66l-105.655 61a5 5 0 11-5-8.66z"/></g><g clip-path="url(#a)"><path fill="#3d3d47" d="M0 0h37.906v409H0z"/></g></symbol><symbol id="logo"><text x="88" y="23" font-size="28" text-anchor="middle" fill="#fefefe" font-family="Roboto Slab" font-weight="700">BUK<tspan fill="#65e496">EE</tspan></text><g data-name="logo icon" fill-rule="evenodd"><path data-name="Rectangle 10 copy 3" d="M28 28L0 0h28v28z" fill="#65e496"/><path d="M28 0L0 28V0h28z" fill="#44444f"/></g></symbol><symbol id="pied-piper-hat" viewBox="0 0 640 512"><path d="M640 24.9c-80.8 53.6-89.4 92.5-96.4 104.4-6.7 12.2-11.7 60.3-23.3 83.6-11.7 23.6-54.2 42.2-66.1 50-11.7 7.8-28.3 38.1-41.9 64.2-108.1-4.4-167.4 38.8-259.2 93.6 29.4-9.7 43.3-16.7 43.3-16.7 94.2-36 139.3-68.3 281.1-49.2 1.1 0 1.9.6 2.8.8 3.9 2.2 5.3 6.9 3.1 10.8l-53.9 95.8c-2.5 4.7-7.8 7.2-13.1 6.1-126.8-23.8-226.9 17.3-318.9 18.6C24.1 488 0 453.4 0 451.8c0-1.1.6-1.7 1.7-1.7 0 0 38.3 0 103.1-15.3C178.4 294.5 244 245.4 315.4 245.4c0 0 71.7 0 90.6 61.9 22.8-39.7 28.3-49.2 28.3-49.2 5.3-9.4 35-77.2 86.4-141.4 51.5-64 90.4-79.9 119.3-91.8z"/></symbol></svg>